PathFileType	4	(X/Y/Z)	Patient4_TMGait_0pt2_03_left_08.trc.trc
DataRate	CameraRate	NumFrames	NumMarkers	Units	OrigDataRate	OrigDataStartFrame	OrigNumFrames
47.138047138047	47.138047138047	5	33	mm	47.138047138047	53	       141
Frame#	Time	Sacral			L.Shoulder			Chest			R.Shoulder			Neck			R.ASIS			L.ASIS			R.Thigh.Superior			R.Thigh.Lateral			R.Thigh.Inferior			R.Patella			L.Thigh.Superior			L.Thigh.Lateral			L.Thigh.Inferior			L.Patella			L.Shank.Superior			L.Shank.Lateral			L.Shank.Inferior			R.Shank.Superior			R.Shank.Lateral			R.Shank.Inferior			R.Heel			R.Midfoot.Superior			R.Midfoot.Lateral			R.Toe			L.Heel			L.Midfoot.Lateral			L.Midfoot.Superior			L.Toe			L.Elbow			L.Wrist			R.Elbow			R.Wrist			
		X1	Y1	Z1	X2	Y2	Z2	X3	Y3	Z3	X4	Y4	Z4	X5	Y5	Z5	X6	Y6	Z6	X7	Y7	Z7	X8	Y8	Z8	X9	Y9	Z9	X10	Y10	Z10	X11	Y11	Z11	X12	Y12	Z12	X13	Y13	Z13	X14	Y14	Z14	X15	Y15	Z15	X16	Y16	Z16	X17	Y17	Z17	X18	Y18	Z18	X19	Y19	Z19	X20	Y20	Z20	X21	Y21	Z21	X22	Y22	Z22	X23	Y23	Z23	X24	Y24	Z24	X25	Y25	Z25	X26	Y26	Z26	X27	Y27	Z27	X28	Y28	Z28	X29	Y29	Z29	X30	Y30	Z30	X31	Y31	Z31	X32	Y32	Z32	X33	Y33	Z33	

53	17.063142857143	752.655636700929	1001.635890770509	417.076299721363	965.544453333084	1423.821261381544	253.244963532119	1043.964336001199	1355.060927839520	426.558605812668	942.743571988293	1430.812870231407	588.801569757629	920.518185381012	1488.514380921865	408.798446298750	968.637813653894	939.606726456296	561.159370762873	986.844348829351	950.933772442043	286.390536195209	1034.840375348665	748.839416056479	541.111878462999	970.675675866682	637.130035195221	612.935281672069	1057.364058986414	582.286930341204	541.072022569417	1060.454817761493	473.678352942286	567.693946388903	1041.548798149950	748.380028428086	327.678212170575	974.029360614436	621.191365711835	261.853245992881	1059.863114997084	555.550487165903	336.205586965259	1065.421863994915	481.808416550852	345.209240880484	1030.264465239324	406.401424450769	336.366754264493	935.615633375967	300.658597061181	276.921407529040	965.073730567790	186.329832171138	352.014111106787	983.725448133973	404.387428895530	581.113865017914	867.435740463765	369.664839505864	653.971276566985	846.847398580680	258.564494012577	609.768270147336	640.752662615296	201.156367784275	608.340371513827	812.216323330096	135.564411640953	626.309723613779	706.288699301336	134.604491707415	669.590862797163	876.421276628809	30.655454811933	633.347967876397	820.631484444354	38.823288917905	382.336771829973	898.169365078587	35.649638342737	305.161564293385	981.004287128779	95.647783187064	337.505632643207	1110.255722738253	41.596353964821	313.318021027739	1047.146421175122	1088.135600798895	117.634519700959	1238.711242013002	910.097390100355	139.784741734304	895.534402555253	1078.892904240006	704.043306951559	974.896918408346	832.710321874229	717.529838803095	
54	17.084357142857	750.775894322726	1000.191844551401	413.080326199556	967.800521693610	1421.980549960598	251.014477555848	1043.471564397471	1353.298517720898	425.540235612660	940.019479687425	1429.402707104976	586.354007844433	920.896618723080	1486.995324900528	406.092381013479	966.022441043275	938.774710984503	558.996519689838	986.277775239914	949.098124980607	284.178486484450	1037.671890782888	751.851706958573	537.504609929837	977.762072450794	638.373876882233	609.649096687183	1065.567312547583	585.782997363847	537.081505486027	1071.159243789901	476.194713159040	564.258006235081	1041.428629339054	747.227110352587	325.782730830967	974.328059075667	619.651166281338	260.545497187040	1059.871671618471	554.481607383263	335.699105831365	1065.578641506521	480.685627021651	345.112635400573	1029.632844300101	404.914903127896	336.247161204384	934.272881736982	299.881882145124	276.549935237259	962.020198192113	185.475482749520	352.054750180194	993.592423358818	406.494839541989	578.042940865935	876.429665746380	373.714251551850	651.049649315440	854.185523559157	262.588396636796	607.418901185179	647.107150371351	209.221893816584	605.892302828761	817.718128763453	140.115631813906	624.975622588581	711.229286078473	141.528893089533	667.909993285777	879.949884122955	30.980385938577	633.330417951986	816.379384432383	38.778601601937	382.240109107854	893.945240218348	35.591710268724	305.057086548722	976.763817340728	95.550164041425	337.561727416424	1106.034003029779	41.562745272219	313.318037956595	1055.655681240650	1088.171414371136	115.555947650741	1257.855818512622	922.530889185460	138.837374798229	873.678021892857	1080.850618861612	699.893924818948	931.599763870027	828.464943222852	715.287707926373	
55	17.105571428571	748.985711288371	999.308605582454	409.492078132591	970.042192853482	1420.586669213231	249.255939874684	1042.998524296406	1352.028785999362	424.940925480862	937.394381087495	1428.584070435396	584.271787766322	921.317885523012	1485.956220538815	403.814008007267	963.342597107869	938.330363012749	557.317510671954	985.719198532475	947.749178651778	282.504974713279	1039.678913139329	755.071135496977	534.378688307597	983.594723877839	640.057200230341	606.801440154400	1072.292641238838	589.552628305062	533.603059078755	1080.380354114086	479.304483040025	561.208838769683	1040.884865430093	746.244971587357	324.072301604386	973.738074322271	618.522588012094	259.334278322691	1058.879892144592	553.574571423562	335.117206627768	1064.596491497697	479.829107324337	344.924845968854	1028.057297544133	403.778159479177	336.027733641470	932.211562257428	299.239318834950	276.140009471638	958.636666394501	184.811847311562	352.026511919002	1002.507112720802	408.894476046505	575.299620309748	884.878278832613	376.909849630501	648.381924011156	862.050818606472	265.672105017104	605.172613592810	654.610924413659	213.675758812894	603.462887561931	825.088470898411	143.837165711085	623.587551554331	718.267654546556	146.084589236065	666.298042465742	886.900521595338	31.880419070733	633.368279449996	812.109657967148	38.735448623620	382.144809359688	889.708073998699	35.531849149216	304.953034470185	972.509530790221	95.462558769258	337.581317225834	1101.797557235074	41.538155895028	313.313187224845	1063.579569435772	1088.764265948711	113.734524009952	1275.855319051497	936.463862142360	138.017339647782	852.464037096813	1084.476123952885	695.612583815028	889.828803011171	827.860797779354	712.005639257121	
56	17.126785714286	747.368459569206	999.148800000847	406.278349937910	972.286977302617	1419.819845916167	247.964716839307	1042.555194350578	1351.434155066561	424.754016526006	934.874172300305	1428.536094762125	582.541026910202	921.757114520060	1485.550526081622	401.949765253555	960.632687680974	938.424076947530	556.124848700844	985.231974330096	947.063649973141	281.394766056840	1040.772450659184	758.445725628237	531.872969358495	987.879530186728	642.172278034272	604.522133680917	1077.261924931919	593.481261317657	530.841994853015	1087.779598555792	482.974145618924	558.739306358693	1039.838334457519	745.484671062538	322.600430748369	972.135104968314	617.909617784044	258.195158457178	1056.696417169995	552.871510615504	334.445188676164	1062.233924165958	479.289282925977	344.604634708842	1025.341510491585	403.074610563537	335.663459911405	929.287499605950	298.768345455313	275.656257330923	954.849241134627	184.389575384095	351.907232129819	1010.256844025279	411.548289771168	573.058158654542	892.706288493916	379.018150033266	646.167798262463	870.574233751110	267.583769731575	603.218788779469	663.582532859725	213.961822682085	601.281746823195	834.664723314191	146.417899926191	622.320644288434	727.786547576142	147.795348174295	664.932935774759	897.749678969119	33.365116738053	633.538248339350	807.816192063303	38.693738713393	382.050404769387	885.451345514084	35.470308068273	304.848558615606	968.233928834228	95.391624478312	337.553867137800	1097.540300086347	41.529168275108	313.302300212656	1070.970944424594	1090.090163533135	112.150141604612	1292.550106213799	951.920346811226	137.360300814815	832.107809964375	1089.813340818209	691.203912727988	850.248752199084	830.686750354501	707.750503554849	
57	17.148000000000	745.989459348169	999.816765441298	403.407996779426	974.556963260837	1419.807404520063	247.128471376433	1042.150271849964	1351.635562016027	424.964284898099	932.462829564912	1429.374570474010	581.140630249227	922.190194089363	1485.875766912271	400.481584972061	957.924541748099	939.163923039441	555.411264162771	984.857591806324	947.155389781853	280.858635245372	1040.901946613208	761.895031118118	530.105295105722	990.396424039941	644.672398218112	602.928206057883	1080.262023964984	597.425895250693	528.964494381075	1093.082138826660	487.131121407716	557.001798667400	1038.232694815655	744.977709417545	321.443549132646	969.469602205634	617.872540009299	257.127545545228	1053.214001847658	552.398515622467	333.705616931584	1058.348245873656	479.091728302413	344.146627495359	1021.374452462706	402.855093651349	335.139657730279	925.420861532585	298.496465478054	275.083546073650	950.614434410595	184.240657842476	351.687755009741	1016.680912058274	414.400694469650	571.465910235929	899.902326520313	379.865830122892	644.600000687969	879.877919690703	268.185386526046	601.743024912976	674.363391878129	209.839295929596	599.591373960226	846.693192564020	147.658988132101	621.363910521888	740.093732949323	146.419561527080	663.998369673226	912.732758500825	35.405597232095	633.920207281185	803.496254489694	38.654495923551	381.957008102218	881.170862981966	35.408321438379	304.744374370884	963.932741225284	95.342715043568	337.474664390834	1093.258737268490	41.540109016531	313.285091930336	1077.884167658956	1092.278350174023	110.790954897241	1307.812151821339	968.850359339254	136.910892075218	812.822524066513	1096.804385843074	686.691562626987	813.442824217468	836.573081533479	702.644211576156	
